<svg id="Layer_1" data-name="Layer 1" xmlns="http://www.w3.org/2000/svg" viewBox="0 0 957.27 962.89"><defs><style>.cls-1{fill:#fff;}</style></defs><path class="cls-1" d="M978.08,668.63H817.64c0,43.16-.63,84.61.26,126,.49,22.93-8.16,32.91-31.84,32.86q-143-.33-286.06-.35t-286.06.35c-23.68.05-32.33-9.93-31.84-32.86.89-41.43.26-82.88.26-126H21.92c0,10.55-.3,118.54-.55,206A112.76,112.76,0,0,0,134.13,987.73H865.87A112.76,112.76,0,0,0,978.63,874.64C978.38,787.17,978.08,679.18,978.08,668.63Z" transform="translate(-21.37 -24.84)"/><path class="cls-1" d="M475.7,712.08l.24.3a31.09,31.09,0,0,0,48.12,0l.24-.3c55.42-68.71,176.09-213.21,248.23-299.33,22.69-27.1,3.15-68.34-32.2-67.93-37.58.43-75.84,1-90.23,1.45a31.39,31.39,0,0,1-32.44-31.38l-.09-235.13C617.57,20.14,500,24.93,500,24.93S382.43,20.14,382.43,79.76l-.09,235.13a31.39,31.39,0,0,1-32.44,31.38c-14.39-.49-52.65-1-90.23-1.45-35.35-.41-54.89,40.83-32.2,67.93C299.61,498.87,420.28,643.37,475.7,712.08Z" transform="translate(-21.37 -24.84)"/></svg>